<?xml version="1.0" encoding="UTF-8" standalone="no"?>
<svg width="512px" height="512px" viewBox="0 0 512 512" version="1.1" xmlns="http://www.w3.org/2000/svg" xmlns:xlink="http://www.w3.org/1999/xlink" xmlns:sketch="http://www.bohemiancoding.com/sketch/ns">
    <!-- Generator: Sketch 3.0.2 (7799) - http://www.bohemiancoding.com/sketch -->
    <title>google-plus</title>
    <description>Created with Sketch.</description>
    <defs></defs>
    <g id="Page-1" stroke="none" stroke-width="1" fill="none" fill-rule="evenodd" sketch:type="MSPage">
        <g id="google-plus" sketch:type="MSArtboardGroup" fill="#000000">
            <path d="M512,78.8 L512,118.2 L433.581627,118.2 L433.581627,197 L394.387752,197 L394.387752,118.2 L316,118.2 L316,78.8 L394.387752,78.8 L394.387752,0 L433.581627,0 L433.581627,78.8 L512,78.8 L512,78.8 Z" sketch:type="MSShapeGroup"></path>
            <path d="M193.140831,0 L328.1849,0 L286.46648,24.3287027 L244.748061,24.3287027 C259.395862,33.5674505 270.706189,46.5016975 278.709945,63.1314437 C286.744603,79.7611898 290.792835,97.09924 290.792835,115.17639 C290.792835,130.358732 288.444242,143.8781 283.685252,155.672901 C278.957165,167.467703 273.178391,176.983613 266.379834,184.159041 C259.581277,191.334468 252.782719,197.955571 245.984162,204.022348 C239.185605,210.089126 233.406831,216.340679 228.678744,222.807802 C223.950656,229.274926 221.571161,236.203987 221.571161,243.594985 C221.571161,248.922663 223.270801,254.157954 226.670079,259.300857 C230.069358,264.443759 234.48842,269.340296 239.958168,274.082853 C245.427917,278.794614 251.453911,283.721947 258.03615,288.86485 C264.61839,294.007753 271.231532,299.70498 277.813771,305.956533 C284.396011,312.208086 290.422005,318.983168 295.891753,326.312574 C301.361501,333.580389 305.749661,342.295608 309.179842,352.458231 C312.579121,362.620853 314.27876,373.553372 314.27876,385.255786 C314.27876,418.084136 299.847277,447.032213 270.984311,472.100015 C239.710948,498.984772 196.416499,512.473344 141.224576,512.473344 C129.07988,512.473344 116.749769,511.426286 104.296049,509.362965 C91.8423279,507.330441 79.264997,503.850512 66.5949585,499.046363 C53.92492,494.242215 42.7382031,488.267824 33.0657102,481.184784 C23.3932174,474.070948 15.4512665,464.98618 9.27075988,453.745703 C3.09025329,442.566818 0,430.125304 0,416.328774 C0,403.825669 3.80101155,389.998343 11.4339372,374.785205 C18.0470792,361.635387 27.9049872,350.302523 41.1003688,340.725021 C54.2957504,331.209111 69.2216738,323.9105 85.9090416,318.89078 C102.596409,313.871061 118.573019,310.175561 133.807968,307.804283 C149.042916,305.433004 164.494183,304.047192 180.161767,303.646846 C166.966385,286.616754 160.384146,271.311229 160.384146,257.761065 C160.384146,255.297399 160.600464,252.895325 161.002197,250.524046 C161.40393,248.183563 161.929273,246.151039 162.547323,244.51886 C163.165374,242.886681 163.999742,240.669382 165.019526,237.897757 C166.039309,235.126133 166.750068,232.908833 167.182703,231.276655 C158.962629,232.292917 151.731437,232.816446 145.55093,232.816446 C114.864715,232.816446 88.5357569,222.746211 66.5949585,202.636536 C44.6541601,182.526862 33.6837609,157.274284 33.6837609,126.878804 C33.6837609,98.1155022 43.4798638,72.4009874 63.0411672,49.7352593 C82.6024706,27.0387354 106.706446,12.5339013 135.353094,6.15916524 C154.728982,2.06332035 173.98126,0 193.140831,0 Z M270.121418,412.503462 C270.121418,408.203992 269.661089,404.088784 268.740432,400.065709 C267.850464,396.073343 266.837742,392.388083 265.825019,389.009928 C264.812297,385.631773 263.001672,382.100065 260.454522,378.414805 C257.907372,374.760255 255.728484,371.627784 254.009925,369.048102 C252.260677,366.46842 249.560084,363.45879 245.877457,359.988504 C242.19483,356.518217 239.371483,353.907824 237.438103,352.157326 C235.504724,350.437538 232.221049,347.827145 227.617765,344.326148 C223.014481,340.855861 219.85356,338.491152 218.104312,337.262732 C216.355064,336.034312 212.979323,333.669604 207.977088,330.168606 C202.974853,326.72903 199.84462,324.579295 198.617078,323.750111 C195.149271,323.350875 190.024281,323.135901 183.272799,323.135901 C172.224918,323.135901 161.391857,323.842243 150.742927,325.285637 C140.093998,326.72903 129.046117,329.278002 117.599285,332.963262 C106.121764,336.648522 96.1172941,341.347229 87.5244979,347.090093 C78.9317017,352.832957 71.8733333,360.510582 66.3493929,370.122969 C60.8254525,379.735356 58.0634823,390.699006 58.0634823,402.983206 C58.0634823,416.925774 61.6847321,429.332817 68.9579203,440.296466 C76.2311086,451.260115 85.713873,459.859056 97.4982792,466.093288 C109.282685,472.32752 121.588797,477.026227 134.477992,480.066566 C147.367186,483.137616 160.348446,484.703852 173.45246,484.703852 C185.513063,484.703852 197.021273,483.3833 207.977088,480.865039 C218.932903,478.285357 229.21357,474.292992 238.819088,468.857233 C248.424607,463.421474 256.066058,455.897401 261.682064,446.315725 C267.29807,436.641917 270.121418,425.401873 270.121418,412.503462 Z M232.253929,146.63133 C232.253929,134.332488 230.57093,121.264968 227.204931,107.42877 C223.838932,93.5925724 219.034733,80.2175813 212.822935,67.3037968 C206.611137,54.3900122 198.04314,43.7207665 187.118943,35.3268065 C176.225346,26.9328466 164.01595,22.7204931 150.551954,22.7204931 C131.57996,22.7204931 116.891964,29.7923274 106.487968,43.9359962 C96.0839707,58.079665 90.8819723,74.9905733 90.8819723,94.6687211 C90.8819723,104.292565 92.0447719,114.469857 94.4009712,125.108356 C96.7571705,135.777602 100.367969,146.416101 105.263968,157.085346 C110.159966,167.723845 115.882165,177.316942 122.399963,185.83389 C128.917761,194.350839 136.873758,201.268938 146.267955,206.588187 C155.662152,211.907436 165.545949,214.582435 175.949946,214.582435 C195.74814,214.582435 210.068936,208.371519 218.942933,195.980435 C227.81693,183.589352 232.253929,167.13965 232.253929,146.63133 Z" sketch:type="MSShapeGroup"></path>
        </g>
    </g>
</svg>