<?xml version="1.0" encoding="UTF-8" standalone="no"?>
<svg width="481px" height="512px" viewBox="0 0 481 512" version="1.1" xmlns="http://www.w3.org/2000/svg" xmlns:xlink="http://www.w3.org/1999/xlink" xmlns:sketch="http://www.bohemiancoding.com/sketch/ns">
    <!-- Generator: Sketch 3.1.1 (8761) - http://www.bohemiancoding.com/sketch -->
    <title>linkedin</title>
    <desc>Created with Sketch.</desc>
    <defs></defs>
    <g id="Page-1" stroke="none" stroke-width="1" fill="none" fill-rule="evenodd" sketch:type="MSPage">
        <g id="linkedin" sketch:type="MSArtboardGroup" fill="#000000">
            <path d="M6,440 L110,440 L110,143 L6,143 L6,440 Z M115.994,50.5 L115.994,50.5 C115.785,35.642 110.456,23.344 100.006,13.607 C89.556,3.869 75.657,-1 58.311,-1 C40.964,-1 26.909,3.869 16.145,13.607 C5.382,23.344 0,35.642 0,50.5 C0,65.157 5.225,77.404 15.675,87.243 C26.125,97.081 39.919,102 57.057,102 L57.684,102 C75.239,102 89.399,97.081 100.162,87.243 C110.926,77.404 116.203,65.157 115.994,50.5 L115.994,50.5 Z M481,269.712 L481,269.712 C481,225.941 470.134,192.713 448.403,170.028 C426.672,147.342 397.94,136 362.209,136 C349.045,136 337.082,137.549 326.321,140.647 C315.56,143.745 306.47,148.092 299.052,153.688 C291.634,159.285 285.731,164.481 281.343,169.278 C276.955,174.075 272.672,179.671 268.493,186.067 L269.119,186.067 L269.119,142.896 L166,142.896 L166.313,157.286 C166.522,166.88 166.627,196.46 166.627,246.028 C166.627,295.595 166.418,360.252 166,440 L269.119,440 L269.119,274.209 C269.119,264.016 270.269,255.921 272.567,249.925 C276.955,239.732 283.59,231.187 292.47,224.292 C301.351,217.397 312.373,213.949 325.537,213.949 C343.508,213.949 356.724,219.895 365.187,231.787 C373.649,243.679 377.881,260.118 377.881,281.104 L377.881,440 L481,440 L481,269.712 L481,269.712 Z" id="Path" sketch:type="MSShapeGroup"></path>
        </g>
    </g>
</svg>