<?xml version="1.0" encoding="UTF-8" standalone="no"?>
<svg width="512px" height="512px" viewBox="0 0 512 512" version="1.1" xmlns="http://www.w3.org/2000/svg" xmlns:xlink="http://www.w3.org/1999/xlink" xmlns:sketch="http://www.bohemiancoding.com/sketch/ns">
    <!-- Generator: Sketch 3.0.2 (7799) - http://www.bohemiancoding.com/sketch -->
    <title>twitter</title>
    <description>Created with Sketch.</description>
    <defs></defs>
    <g id="Page-1" stroke="none" stroke-width="1" fill="none" fill-rule="evenodd" sketch:type="MSPage">
        <g id="twitter" sketch:type="MSArtboardGroup" fill="#000000">
            <path d="M459.370558,103.675 C459.59797,106.6975 459.695431,111.2475 459.695431,117.325 C459.695431,145.5025 455.569543,173.5825 447.350254,201.6625 C439.130964,229.7425 426.62335,256.6525 409.827411,282.425 C393.031472,308.23 373.084264,331.0125 349.888325,350.8375 C326.692386,370.6625 298.785787,386.49 266.071066,398.2875 C233.356345,410.085 198.4,416 161.137056,416 C102.432487,416 48.7309645,400.3025 0,368.875 C7.56954315,369.72 16.0162437,370.175 25.3401015,370.175 C74.071066,370.175 117.506599,355.225 155.614213,325.325 C132.873096,324.9025 112.503553,317.8825 94.5380711,304.33 C76.5725888,290.81 64.2274112,273.5525 57.5025381,252.525 C64.6497462,253.5975 71.2446701,254.15 77.319797,254.15 C86.6111675,254.15 95.8375635,252.9475 104.93401,250.575 C80.6659898,245.6025 60.5888325,233.5125 44.6700508,214.3375 C28.751269,195.1625 20.7918782,172.9 20.7918782,147.55 L20.7918782,146.25 C35.5086294,154.4725 51.3299492,158.925 68.2233503,159.575 C53.928934,150.0525 42.5583756,137.5725 34.1116751,122.2 C25.6649746,106.8275 21.4416244,90.1225 21.4416244,72.15 C21.4416244,53.0725 26.2172589,35.425 35.7360406,19.175 C61.9532995,51.4475 93.8233503,77.285 131.411168,96.6875 C168.998985,116.0575 209.218274,126.8475 252.101523,129.025 C250.379695,120.8025 249.502538,112.775 249.502538,104.975 C249.502538,75.9525 259.736041,51.1875 280.170558,30.7125 C300.670051,10.2375 325.425381,0 354.436548,0 C384.747208,0 410.314721,11.05 431.106599,33.15 C454.692386,28.6 476.913706,20.15 497.705584,7.8 C489.713706,32.695 474.314721,52 451.573604,65.65 C471.715736,63.4725 491.857868,58.0775 512,49.4 C497.51066,70.655 479.935025,88.725 459.370558,103.675 L459.370558,103.675 Z" id="shape" sketch:type="MSShapeGroup"></path>
        </g>
    </g>
</svg>